<svg xmlns="http://www.w3.org/2000/svg" xmlns:xlink="http://www.w3.org/1999/xlink" width="582.407" height="420.815" viewBox="0 0 582.407 420.815"><defs><style>.a,.b,.f{fill:none;}.a{stroke:#db894b;stroke-width:15px;}.b{stroke:#f25044;stroke-linecap:round;stroke-width:30px;}.c{fill:#71c682;}.d{fill:#57a666;}.e{stroke:none;}.g{filter:url(#e);}.h{filter:url(#c);}.i{filter:url(#a);}</style><filter id="a" x="117.734" y="66.967" width="353.273" height="353.273" filterUnits="userSpaceOnUse"><feOffset dx="3" dy="3" input="SourceAlpha"/><feGaussianBlur stdDeviation="2.5" result="b"/><feFlood flood-opacity="0.161"/><feComposite operator="in" in2="b"/><feComposite in="SourceGraphic"/></filter><filter id="c" x="253.072" y="0.341" width="48.361" height="81.481" filterUnits="userSpaceOnUse"><feOffset dx="3" dy="3" input="SourceAlpha"/><feGaussianBlur stdDeviation="2.5" result="d"/><feFlood flood-opacity="0.161"/><feComposite operator="in" in2="d"/><feComposite in="SourceGraphic"/></filter><filter id="e" x="286.787" y="0" width="48.361" height="81.481" filterUnits="userSpaceOnUse"><feOffset dx="3" dy="3" input="SourceAlpha"/><feGaussianBlur stdDeviation="2.5" result="f"/><feFlood flood-opacity="0.161"/><feComposite operator="in" in2="f"/><feComposite in="SourceGraphic"/></filter></defs><g transform="translate(-348.766 -159.533)"><path class="a" d="M352.286,358.653s96.088,19.886,114.549,27.822c-6.154,98.851,59.556,197.354,189.2,192.175,145.653-14.741,167.5-145.738,161.565-192.175,54.557-16.016,114.11-27.822,114.11-27.822" transform="translate(-2 -6)"/><g class="i" transform="matrix(1, 0, 0, 1, 348.77, 159.53)"><g class="b" transform="translate(122.23 71.47)"><circle class="e" cx="169.137" cy="169.137" r="169.137"/><circle class="f" cx="169.137" cy="169.137" r="154.137"/></g></g><g transform="translate(1 144)"><g class="h" transform="matrix(1, 0, 0, 1, 347.77, 15.53)"><path class="c" d="M32.5,0,65,30H0Z" transform="translate(260.97 71.32) rotate(-93)"/></g><g class="g" transform="matrix(1, 0, 0, 1, 347.77, 15.53)"><path class="d" d="M32.5,0,65,30H0Z" transform="translate(324.65 6.07) rotate(93)"/></g></g></g></svg>