<svg xmlns="http://www.w3.org/2000/svg" width="23.5" height="24.289" viewBox="0 0 23.5 24.289"><defs><style>.a,.b{fill:none;}.a{stroke-linecap:round;}.b{stroke:#b72212;}.c,.d{stroke:none;}.d{fill:#f25044;}</style></defs><g transform="translate(-673 -271.026)"><g class="a" transform="translate(673 271.026)"><path class="c" d="M11.75,0A11.952,11.952,0,0,1,23.5,12.144,11.952,11.952,0,0,1,11.75,24.289,11.952,11.952,0,0,1,0,12.144,11.952,11.952,0,0,1,11.75,0Z"/><path class="d" d="M 11.74999904632568 1.000003814697266 C 5.822429656982422 1.000003814697266 0.9999980926513672 5.999383926391602 0.9999980926513672 12.14446353912354 C 0.9999980926513672 18.28954315185547 5.822429656982422 23.2889232635498 11.74999904632568 23.2889232635498 C 17.67756843566895 23.2889232635498 22.5 18.28954315185547 22.5 12.14446353912354 C 22.5 5.999383926391602 17.67756843566895 1.000003814697266 11.74999904632568 1.000003814697266 M 11.74999904632568 3.814697265625e-06 C 18.23934936523438 3.814697265625e-06 23.5 5.437263488769531 23.5 12.14446353912354 C 23.5 18.8516731262207 18.23934936523438 24.2889232635498 11.74999904632568 24.2889232635498 C 5.260658264160156 24.2889232635498 -1.9073486328125e-06 18.8516731262207 -1.9073486328125e-06 12.14446353912354 C -1.9073486328125e-06 5.437263488769531 5.260658264160156 3.814697265625e-06 11.74999904632568 3.814697265625e-06 Z"/></g><line class="b" x2="16.207" transform="translate(679.02 277.835) rotate(45)"/><line class="b" y1="16.207" transform="translate(690.48 277.835) rotate(45)"/></g></svg>